# xmcd CD database file
#
# Track frame offsets:
#	150
#	23550
#	46062
#	71837
#	92325
#	114587
#	137187
#	160100
#	188300
#	211475
#	235425
#	249375
#	286225
#
# Disc length: 3962 seconds
#
# Revision: 0
# Processed by: cddbd v1.5.2PL0 Copyright (c) Steve Scherf et al.
# Submitted via: CDex 1.50
#
DISCID=a90f780d
DTITLE=Zed+ - L'ombre et la Lumière
DYEAR=1995
DGENRE=Jazz
TTITLE0=Le premier
TTITLE1=François's song
TTITLE2=Etat d'amour
TTITLE3=Caraïbes (l'afro)
TTITLE4=Mektoub
TTITLE5=The big boat
TTITLE6=Migration (la b.d)
TTITLE7=Sit tight
TTITLE8=Physique
TTITLE9=Emotionnel
TTITLE10=Sprirituel
TTITLE11=Summertime
TTITLE12=Jamboaz
EXTD=YEAR: 1995
EXTT0=
EXTT1=
EXTT2=
EXTT3=
EXTT4=
EXTT5=
EXTT6=
EXTT7=
EXTT8=
EXTT9=
EXTT10=
EXTT11=
EXTT12=
PLAYORDER=
